<mxfile host="app.diagrams.net" modified="2020-11-13T03:06:00.648Z" agent="5.0 (Macintosh; Intel Mac OS X 10_15_7) AppleWebKit/537.36 (KHTML, like Gecko) Chrome/86.0.4240.198 Safari/537.36" etag="h02NZoUHSotvMuX9NJUn" version="13.9.7" type="github">
  <diagram name="Page-1" id="822b0af5-4adb-64df-f703-e8dfc1f81529">
    <mxGraphModel dx="1113" dy="722" grid="1" gridSize="10" guides="1" tooltips="1" connect="1" arrows="1" fold="1" page="1" pageScale="1" pageWidth="1100" pageHeight="850" background="#ffffff" math="0" shadow="0">
      <root>
        <mxCell id="0" />
        <mxCell id="1" parent="0" />
        <mxCell id="nAGOUTTO9iNihq-CF8Dd-1" value="&lt;span style=&quot;font-size: 30px&quot;&gt;Trình duyệt&lt;/span&gt;" style="rounded=0;whiteSpace=wrap;html=1;" vertex="1" parent="1">
          <mxGeometry x="40" y="425" width="200" height="80" as="geometry" />
        </mxCell>
        <mxCell id="nAGOUTTO9iNihq-CF8Dd-2" value="&lt;font style=&quot;font-size: 40px&quot;&gt;Client&lt;/font&gt;" style="rounded=1;whiteSpace=wrap;html=1;" vertex="1" parent="1">
          <mxGeometry x="130" y="270" width="180" height="105" as="geometry" />
        </mxCell>
        <mxCell id="nAGOUTTO9iNihq-CF8Dd-4" value="" style="endArrow=classic;html=1;entryX=0.143;entryY=1.001;entryDx=0;entryDy=0;entryPerimeter=0;exitX=0.5;exitY=0;exitDx=0;exitDy=0;strokeWidth=5;" edge="1" parent="1" source="nAGOUTTO9iNihq-CF8Dd-1" target="nAGOUTTO9iNihq-CF8Dd-2">
          <mxGeometry width="50" height="50" relative="1" as="geometry">
            <mxPoint x="490" y="530" as="sourcePoint" />
            <mxPoint x="540" y="480" as="targetPoint" />
          </mxGeometry>
        </mxCell>
        <mxCell id="nAGOUTTO9iNihq-CF8Dd-5" value="&lt;span style=&quot;color: rgb(0 , 0 , 0) ; font-family: &amp;#34;helvetica&amp;#34; ; font-style: normal ; font-weight: 400 ; letter-spacing: normal ; text-indent: 0px ; text-transform: none ; word-spacing: 0px ; background-color: rgb(248 , 249 , 250) ; display: inline ; float: none&quot;&gt;&lt;font style=&quot;font-size: 70px&quot;&gt;&amp;nbsp; Server&lt;br&gt;&lt;/font&gt;&lt;br&gt;&lt;br&gt;&lt;br&gt;&lt;br&gt;&lt;br&gt;&lt;br&gt;&lt;br&gt;&lt;br&gt;&lt;br&gt;&lt;br&gt;&lt;br&gt;&lt;br&gt;&lt;br&gt;&lt;br&gt;&lt;br&gt;&lt;/span&gt;" style="rounded=1;whiteSpace=wrap;html=1;align=left;" vertex="1" parent="1">
          <mxGeometry x="410" y="100" width="651" height="490" as="geometry" />
        </mxCell>
        <mxCell id="nAGOUTTO9iNihq-CF8Dd-6" value="" style="endArrow=classic;html=1;strokeWidth=5;exitX=1;exitY=0.5;exitDx=0;exitDy=0;entryX=-0.007;entryY=0.441;entryDx=0;entryDy=0;entryPerimeter=0;" edge="1" parent="1" source="nAGOUTTO9iNihq-CF8Dd-2" target="nAGOUTTO9iNihq-CF8Dd-5">
          <mxGeometry width="50" height="50" relative="1" as="geometry">
            <mxPoint x="370" y="397.5" as="sourcePoint" />
            <mxPoint x="450" y="365" as="targetPoint" />
          </mxGeometry>
        </mxCell>
        <mxCell id="nAGOUTTO9iNihq-CF8Dd-9" value="" style="endArrow=classic;html=1;strokeWidth=5;entryX=1;entryY=0.75;entryDx=0;entryDy=0;exitX=0;exitY=0.5;exitDx=0;exitDy=0;" edge="1" parent="1" source="nAGOUTTO9iNihq-CF8Dd-5" target="nAGOUTTO9iNihq-CF8Dd-2">
          <mxGeometry width="50" height="50" relative="1" as="geometry">
            <mxPoint x="440" y="390" as="sourcePoint" />
            <mxPoint x="380" y="490" as="targetPoint" />
          </mxGeometry>
        </mxCell>
        <mxCell id="nAGOUTTO9iNihq-CF8Dd-10" value="&lt;font style=&quot;font-size: 30px&quot;&gt;Web server&lt;br&gt;apache, nginx ...&lt;/font&gt;" style="rounded=1;whiteSpace=wrap;html=1;" vertex="1" parent="1">
          <mxGeometry x="430" y="410" width="260" height="115" as="geometry" />
        </mxCell>
        <mxCell id="nAGOUTTO9iNihq-CF8Dd-13" value="&lt;div&gt;&lt;span style=&quot;font-size: 30px&quot;&gt;Database&lt;/span&gt;&lt;/div&gt;&lt;font style=&quot;font-size: 30px&quot;&gt;&lt;br&gt;&lt;br&gt;&lt;br&gt;&lt;/font&gt;" style="rounded=1;whiteSpace=wrap;html=1;align=center;" vertex="1" parent="1">
          <mxGeometry x="710" y="120" width="320" height="180" as="geometry" />
        </mxCell>
        <mxCell id="nAGOUTTO9iNihq-CF8Dd-16" value="&lt;font style=&quot;font-size: 15px&quot;&gt;Database 1&lt;/font&gt;" style="rounded=1;whiteSpace=wrap;html=1;" vertex="1" parent="1">
          <mxGeometry x="730" y="210" width="80" height="60" as="geometry" />
        </mxCell>
        <mxCell id="nAGOUTTO9iNihq-CF8Dd-17" value="&lt;font style=&quot;font-size: 15px&quot;&gt;Database 2&lt;/font&gt;" style="rounded=1;whiteSpace=wrap;html=1;" vertex="1" parent="1">
          <mxGeometry x="820" y="210" width="80" height="60" as="geometry" />
        </mxCell>
        <mxCell id="nAGOUTTO9iNihq-CF8Dd-18" value="&lt;font style=&quot;font-size: 15px&quot;&gt;Database 3&lt;/font&gt;" style="rounded=1;whiteSpace=wrap;html=1;" vertex="1" parent="1">
          <mxGeometry x="910" y="210" width="80" height="60" as="geometry" />
        </mxCell>
        <mxCell id="nAGOUTTO9iNihq-CF8Dd-19" value="&lt;font style=&quot;font-size: 35px&quot;&gt;Web application&lt;br&gt;&lt;br&gt;&lt;br&gt;&lt;br&gt;&lt;br&gt;&lt;/font&gt;" style="rounded=1;whiteSpace=wrap;html=1;" vertex="1" parent="1">
          <mxGeometry x="730" y="350" width="300" height="220" as="geometry" />
        </mxCell>
        <mxCell id="nAGOUTTO9iNihq-CF8Dd-20" value="" style="endArrow=classic;html=1;strokeWidth=5;exitX=1;exitY=0.5;exitDx=0;exitDy=0;" edge="1" parent="1" source="nAGOUTTO9iNihq-CF8Dd-10" target="nAGOUTTO9iNihq-CF8Dd-19">
          <mxGeometry width="50" height="50" relative="1" as="geometry">
            <mxPoint x="560" y="410" as="sourcePoint" />
            <mxPoint x="610" y="360" as="targetPoint" />
          </mxGeometry>
        </mxCell>
        <mxCell id="nAGOUTTO9iNihq-CF8Dd-21" value="&lt;font style=&quot;font-size: 15px&quot;&gt;App 1&lt;/font&gt;" style="rounded=1;whiteSpace=wrap;html=1;" vertex="1" parent="1">
          <mxGeometry x="750" y="395" width="120" height="60" as="geometry" />
        </mxCell>
        <mxCell id="nAGOUTTO9iNihq-CF8Dd-22" value="&lt;font style=&quot;font-size: 15px&quot;&gt;App 2&lt;/font&gt;" style="rounded=1;whiteSpace=wrap;html=1;" vertex="1" parent="1">
          <mxGeometry x="890" y="395" width="120" height="60" as="geometry" />
        </mxCell>
        <mxCell id="nAGOUTTO9iNihq-CF8Dd-23" value="&lt;font style=&quot;font-size: 15px&quot;&gt;App 3&lt;/font&gt;" style="rounded=1;whiteSpace=wrap;html=1;" vertex="1" parent="1">
          <mxGeometry x="750" y="465" width="120" height="60" as="geometry" />
        </mxCell>
        <mxCell id="nAGOUTTO9iNihq-CF8Dd-24" value="&lt;font style=&quot;font-size: 15px&quot;&gt;App 4&lt;/font&gt;" style="rounded=1;whiteSpace=wrap;html=1;" vertex="1" parent="1">
          <mxGeometry x="890" y="465" width="120" height="60" as="geometry" />
        </mxCell>
        <mxCell id="nAGOUTTO9iNihq-CF8Dd-29" value="" style="endArrow=classic;html=1;strokeWidth=5;entryX=0.5;entryY=1;entryDx=0;entryDy=0;" edge="1" parent="1" source="nAGOUTTO9iNihq-CF8Dd-19" target="nAGOUTTO9iNihq-CF8Dd-13">
          <mxGeometry width="50" height="50" relative="1" as="geometry">
            <mxPoint x="550" y="390" as="sourcePoint" />
            <mxPoint x="600" y="340" as="targetPoint" />
          </mxGeometry>
        </mxCell>
        <mxCell id="nAGOUTTO9iNihq-CF8Dd-37" value="" style="endArrow=classic;html=1;strokeWidth=5;exitX=0.318;exitY=1.015;exitDx=0;exitDy=0;exitPerimeter=0;entryX=0.276;entryY=0.002;entryDx=0;entryDy=0;entryPerimeter=0;" edge="1" parent="1" source="nAGOUTTO9iNihq-CF8Dd-13" target="nAGOUTTO9iNihq-CF8Dd-19">
          <mxGeometry width="50" height="50" relative="1" as="geometry">
            <mxPoint x="550" y="390" as="sourcePoint" />
            <mxPoint x="600" y="340" as="targetPoint" />
          </mxGeometry>
        </mxCell>
        <mxCell id="nAGOUTTO9iNihq-CF8Dd-39" value="" style="endArrow=classic;html=1;strokeWidth=5;exitX=0.002;exitY=0.411;exitDx=0;exitDy=0;exitPerimeter=0;entryX=1;entryY=0.25;entryDx=0;entryDy=0;" edge="1" parent="1" source="nAGOUTTO9iNihq-CF8Dd-19" target="nAGOUTTO9iNihq-CF8Dd-10">
          <mxGeometry width="50" height="50" relative="1" as="geometry">
            <mxPoint x="550" y="390" as="sourcePoint" />
            <mxPoint x="600" y="340" as="targetPoint" />
          </mxGeometry>
        </mxCell>
      </root>
    </mxGraphModel>
  </diagram>
</mxfile>
